<?xml version="1.0" encoding="UTF-8" standalone="no"?>
<!DOCTYPE svg PUBLIC "-//W3C//DTD SVG 1.1//EN"
 "http://www.w3.org/Graphics/SVG/1.1/DTD/svg11.dtd">
<!-- Generated by graphviz version 2.42.4 (0)
 -->
<!-- Title: DeploymentDiagram Pages: 1 -->
<svg width="892pt" height="1194pt"
 viewBox="0.00 0.00 891.80 1193.71" xmlns="http://www.w3.org/2000/svg" xmlns:xlink="http://www.w3.org/1999/xlink">
<g id="graph0" class="graph" transform="scale(1 1) rotate(0) translate(14.4 1179.31)">
<title>DeploymentDiagram</title>
<polygon fill="white" stroke="transparent" points="-14.4,14.4 -14.4,-1179.31 877.4,-1179.31 877.4,14.4 -14.4,14.4"/>
<text text-anchor="middle" x="431.5" y="-1151.31" font-family="Arial" font-size="12.00">Diagrama de Implantação &#45; Sistema de Recomendação de Grade Acadêmica</text>
<g id="clust1" class="cluster">
<title>cluster_client</title>
<path fill="white" stroke="#3b82f6" stroke-width="1.6" d="M89,-920.91C89,-920.91 253,-920.91 253,-920.91 259,-920.91 265,-926.91 265,-932.91 265,-932.91 265,-1123.91 265,-1123.91 265,-1129.91 259,-1135.91 253,-1135.91 253,-1135.91 89,-1135.91 89,-1135.91 83,-1135.91 77,-1129.91 77,-1123.91 77,-1123.91 77,-932.91 77,-932.91 77,-926.91 83,-920.91 89,-920.91"/>
<text text-anchor="middle" x="171" y="-1123.11" font-family="Arial" font-size="11.00">&lt;&lt;device&gt;&gt; Dispositivo do usuário</text>
<text text-anchor="middle" x="171" y="-1111.11" font-family="Arial" font-size="11.00">PC, notebook ou smartphone</text>
</g>
<g id="clust2" class="cluster">
<title>cluster_github</title>
<path fill="white" stroke="#8b5cf6" stroke-width="1.6" d="M304,-809.91C304,-809.91 518,-809.91 518,-809.91 524,-809.91 530,-815.91 530,-821.91 530,-821.91 530,-991.91 530,-991.91 530,-997.91 524,-1003.91 518,-1003.91 518,-1003.91 304,-1003.91 304,-1003.91 298,-1003.91 292,-997.91 292,-991.91 292,-991.91 292,-821.91 292,-821.91 292,-815.91 298,-809.91 304,-809.91"/>
<text text-anchor="middle" x="411" y="-991.11" font-family="Arial" font-size="11.00">&lt;&lt;cloud&gt;&gt; GitHub</text>
</g>
<g id="clust3" class="cluster">
<title>cluster_app</title>
<path fill="white" stroke="#10b981" stroke-width="1.6" d="M20,-359C20,-359 592,-359 592,-359 598,-359 604,-365 604,-371 604,-371 604,-664 604,-664 604,-670 598,-676 592,-676 592,-676 20,-676 20,-676 14,-676 8,-670 8,-664 8,-664 8,-371 8,-371 8,-365 14,-359 20,-359"/>
<text text-anchor="middle" x="306" y="-663.2" font-family="Arial" font-size="11.00">&lt;&lt;device&gt;&gt; Servidor Web e de Aplicação</text>
<text text-anchor="middle" x="306" y="-651.2" font-family="Arial" font-size="11.00">Ambiente cloud ou datacenter institucional</text>
</g>
<g id="clust6" class="cluster">
<title>cluster_db</title>
<path fill="white" stroke="#f59e0b" stroke-width="1.6" d="M420,-8C420,-8 843,-8 843,-8 849,-8 855,-14 855,-20 855,-20 855,-91 855,-91 855,-97 849,-103 843,-103 843,-103 420,-103 420,-103 414,-103 408,-97 408,-91 408,-91 408,-20 408,-20 408,-14 414,-8 420,-8"/>
<text text-anchor="middle" x="631.5" y="-90.2" font-family="Arial" font-size="11.00">&lt;&lt;device&gt;&gt; Servidor de Banco de Dados</text>
<text text-anchor="middle" x="631.5" y="-78.2" font-family="Arial" font-size="11.00">Rede privada</text>
</g>
<!-- client_browser -->
<g id="node1" class="node">
<title>client_browser</title>
<path fill="#eff6ff" stroke="#3f4d5a" d="M228.5,-1095.91C228.5,-1095.91 113.5,-1095.91 113.5,-1095.91 107.5,-1095.91 101.5,-1089.91 101.5,-1083.91 101.5,-1083.91 101.5,-1060.91 101.5,-1060.91 101.5,-1054.91 107.5,-1048.91 113.5,-1048.91 113.5,-1048.91 228.5,-1048.91 228.5,-1048.91 234.5,-1048.91 240.5,-1054.91 240.5,-1060.91 240.5,-1060.91 240.5,-1083.91 240.5,-1083.91 240.5,-1089.91 234.5,-1095.91 228.5,-1095.91"/>
<text text-anchor="middle" x="171" y="-1080.91" font-family="Arial" font-size="10.00">&lt;&lt;executionEnvironment&gt;&gt;</text>
<text text-anchor="middle" x="171" y="-1069.91" font-family="Arial" font-size="10.00">Navegador Web</text>
<text text-anchor="middle" x="171" y="-1058.91" font-family="Arial" font-size="10.00">Chrome / Firefox / Edge</text>
</g>
<!-- client_front -->
<g id="node2" class="node">
<title>client_front</title>
<path fill="#dbeafe" stroke="#3f4d5a" d="M245,-975.91C245,-975.91 97,-975.91 97,-975.91 91,-975.91 85,-969.91 85,-963.91 85,-963.91 85,-940.91 85,-940.91 85,-934.91 91,-928.91 97,-928.91 97,-928.91 245,-928.91 245,-928.91 251,-928.91 257,-934.91 257,-940.91 257,-940.91 257,-963.91 257,-963.91 257,-969.91 251,-975.91 245,-975.91"/>
<text text-anchor="middle" x="171" y="-960.91" font-family="Arial" font-size="10.00">&lt;&lt;artifact&gt;&gt;</text>
<text text-anchor="middle" x="171" y="-949.91" font-family="Arial" font-size="10.00">Cliente Web</text>
<text text-anchor="middle" x="171" y="-938.91" font-family="Arial" font-size="10.00">Interface de recomendação e grade</text>
</g>
<!-- client_browser&#45;&gt;client_front -->
<g id="edge1" class="edge">
<title>client_browser&#45;&gt;client_front</title>
<path fill="none" stroke="#60a5fa" stroke-width="1.25" d="M171,-1048.66C171,-1027.76 171,-996.97 171,-976.09"/>
<text text-anchor="middle" x="187.5" y="-1014.71" font-family="Arial" font-size="9.00">executa</text>
</g>
<!-- internet -->
<g id="node5" class="node">
<title>internet</title>
<ellipse fill="#f1f5f9" stroke="#64748b" cx="179" cy="-737.46" rx="54.39" ry="25.41"/>
<text text-anchor="middle" x="179" y="-740.46" font-family="Arial" font-size="10.00">&lt;&lt;network&gt;&gt;</text>
<text text-anchor="middle" x="179" y="-729.46" font-family="Arial" font-size="10.00">Internet</text>
</g>
<!-- client_front&#45;&gt;internet -->
<g id="edge10" class="edge">
<title>client_front&#45;&gt;internet</title>
<path fill="none" stroke="#475569" stroke-width="1.25" d="M171.86,-928.62C173.28,-890.72 176.14,-814.6 177.78,-771.04"/>
<polygon fill="#475569" stroke="#475569" stroke-width="1.25" points="180.57,-771.14 178.08,-763.04 174.98,-770.93 180.57,-771.14"/>
<text text-anchor="middle" x="213.5" y="-839.21" font-family="Arial" font-size="9.00">HTTPS / TCP 443</text>
</g>
<!-- repo -->
<g id="node3" class="node">
<title>repo</title>
<path fill="#f5f3ff" stroke="#3f4d5a" d="M510,-975.91C510,-975.91 312,-975.91 312,-975.91 306,-975.91 300,-969.91 300,-963.91 300,-963.91 300,-940.91 300,-940.91 300,-934.91 306,-928.91 312,-928.91 312,-928.91 510,-928.91 510,-928.91 516,-928.91 522,-934.91 522,-940.91 522,-940.91 522,-963.91 522,-963.91 522,-969.91 516,-975.91 510,-975.91"/>
<text text-anchor="middle" x="411" y="-960.91" font-family="Arial" font-size="10.00">&lt;&lt;artifact&gt;&gt;</text>
<text text-anchor="middle" x="411" y="-949.91" font-family="Arial" font-size="10.00">Repositório Git</text>
<text text-anchor="middle" x="411" y="-938.91" font-family="Arial" font-size="10.00">código, diagramas, protótipos e documentação</text>
</g>
<!-- actions -->
<g id="node4" class="node">
<title>actions</title>
<path fill="#ede9fe" stroke="#3f4d5a" d="M463,-864.91C463,-864.91 327,-864.91 327,-864.91 321,-864.91 315,-858.91 315,-852.91 315,-852.91 315,-829.91 315,-829.91 315,-823.91 321,-817.91 327,-817.91 327,-817.91 463,-817.91 463,-817.91 469,-817.91 475,-823.91 475,-829.91 475,-829.91 475,-852.91 475,-852.91 475,-858.91 469,-864.91 463,-864.91"/>
<text text-anchor="middle" x="395" y="-849.91" font-family="Arial" font-size="10.00">&lt;&lt;executionEnvironment&gt;&gt;</text>
<text text-anchor="middle" x="395" y="-838.91" font-family="Arial" font-size="10.00">GitHub Actions</text>
<text text-anchor="middle" x="395" y="-827.91" font-family="Arial" font-size="10.00">validação, testes, build e pacote</text>
</g>
<!-- repo&#45;&gt;actions -->
<g id="edge2" class="edge">
<title>repo&#45;&gt;actions</title>
<path fill="none" stroke="#a78bfa" stroke-width="1.25" d="M407.68,-928.83C405.32,-912.75 402.13,-890.95 399.53,-873.27"/>
<polygon fill="#a78bfa" stroke="#a78bfa" stroke-width="1.25" points="402.24,-872.48 398.31,-864.97 396.7,-873.29 402.24,-872.48"/>
<text text-anchor="middle" x="417" y="-894.71" font-family="Arial" font-size="9.00">aciona</text>
</g>
<!-- app_runtime -->
<g id="node6" class="node">
<title>app_runtime</title>
<path fill="#ecfdf5" stroke="#3f4d5a" d="M451.5,-636C451.5,-636 336.5,-636 336.5,-636 330.5,-636 324.5,-630 324.5,-624 324.5,-624 324.5,-601 324.5,-601 324.5,-595 330.5,-589 336.5,-589 336.5,-589 451.5,-589 451.5,-589 457.5,-589 463.5,-595 463.5,-601 463.5,-601 463.5,-624 463.5,-624 463.5,-630 457.5,-636 451.5,-636"/>
<text text-anchor="middle" x="394" y="-621" font-family="Arial" font-size="10.00">&lt;&lt;executionEnvironment&gt;&gt;</text>
<text text-anchor="middle" x="394" y="-610" font-family="Arial" font-size="10.00">SO Linux + Servidor HTTP</text>
<text text-anchor="middle" x="394" y="-599" font-family="Arial" font-size="10.00">+ Runtime da Aplicação</text>
</g>
<!-- actions&#45;&gt;app_runtime -->
<g id="edge12" class="edge">
<title>actions&#45;&gt;app_runtime</title>
<path fill="none" stroke="#8b5cf6" stroke-width="1.25" stroke-dasharray="5,2" d="M394.9,-817.82C394.72,-776.98 394.34,-690.81 394.14,-644.5"/>
<polygon fill="#8b5cf6" stroke="#8b5cf6" stroke-width="1.25" points="396.94,-644.32 394.1,-636.33 391.34,-644.34 396.94,-644.32"/>
<text text-anchor="middle" x="447" y="-740.26" font-family="Arial" font-size="9.00" fill="#6d28d9">CI/CD: pacote versionado</text>
<text text-anchor="middle" x="447" y="-730.26" font-family="Arial" font-size="9.00" fill="#6d28d9">HTTPS ou SSH restrito</text>
</g>
<!-- frontend_bundle -->
<g id="node7" class="node">
<title>frontend_bundle</title>
<path fill="#d1fae5" stroke="#3f4d5a" d="M243.5,-525C243.5,-525 136.5,-525 136.5,-525 130.5,-525 124.5,-519 124.5,-513 124.5,-513 124.5,-490 124.5,-490 124.5,-484 130.5,-478 136.5,-478 136.5,-478 243.5,-478 243.5,-478 249.5,-478 255.5,-484 255.5,-490 255.5,-490 255.5,-513 255.5,-513 255.5,-519 249.5,-525 243.5,-525"/>
<text text-anchor="middle" x="190" y="-510" font-family="Arial" font-size="10.00">&lt;&lt;artifact&gt;&gt;</text>
<text text-anchor="middle" x="190" y="-499" font-family="Arial" font-size="10.00">Frontend compilado</text>
<text text-anchor="middle" x="190" y="-488" font-family="Arial" font-size="10.00">HTML / CSS / JavaScript</text>
</g>
<!-- internet&#45;&gt;frontend_bundle -->
<g id="edge11" class="edge">
<title>internet&#45;&gt;frontend_bundle</title>
<path fill="none" stroke="#475569" stroke-width="1.25" d="M180.16,-711.86C182.18,-668.9 186.34,-580.29 188.55,-533.31"/>
<polygon fill="#475569" stroke="#475569" stroke-width="1.25" points="191.36,-533.16 188.94,-525.04 185.77,-532.9 191.36,-533.16"/>
<text text-anchor="middle" x="222.5" y="-610.3" font-family="Arial" font-size="9.00">HTTPS / TCP 443</text>
</g>
<!-- app_runtime&#45;&gt;frontend_bundle -->
<g id="edge3" class="edge">
<title>app_runtime&#45;&gt;frontend_bundle</title>
<path fill="none" stroke="#34d399" stroke-width="1.25" d="M351.73,-588.92C319.04,-571.45 273.72,-547.23 239.37,-528.88"/>
<polygon fill="#34d399" stroke="#34d399" stroke-width="1.25" points="240.59,-526.36 232.21,-525.06 237.95,-531.3 240.59,-526.36"/>
<text text-anchor="middle" x="316.5" y="-554.8" font-family="Arial" font-size="9.00">hospeda</text>
</g>
<!-- api -->
<g id="node8" class="node">
<title>api</title>
<path fill="#d1fae5" stroke="#3f4d5a" d="M456,-519.5C456,-519.5 332,-519.5 332,-519.5 326,-519.5 320,-513.5 320,-507.5 320,-507.5 320,-495.5 320,-495.5 320,-489.5 326,-483.5 332,-483.5 332,-483.5 456,-483.5 456,-483.5 462,-483.5 468,-489.5 468,-495.5 468,-495.5 468,-507.5 468,-507.5 468,-513.5 462,-519.5 456,-519.5"/>
<text text-anchor="middle" x="394" y="-504.5" font-family="Arial" font-size="10.00">&lt;&lt;artifact&gt;&gt;</text>
<text text-anchor="middle" x="394" y="-493.5" font-family="Arial" font-size="10.00">API REST do Recomendador</text>
</g>
<!-- app_runtime&#45;&gt;api -->
<g id="edge4" class="edge">
<title>app_runtime&#45;&gt;api</title>
<path fill="none" stroke="#34d399" stroke-width="1.25" d="M394,-588.92C394,-571.15 394,-546.4 394,-527.94"/>
<polygon fill="#34d399" stroke="#34d399" stroke-width="1.25" points="396.8,-527.69 394,-519.69 391.2,-527.69 396.8,-527.69"/>
<text text-anchor="middle" x="410.5" y="-554.8" font-family="Arial" font-size="9.00">executa</text>
</g>
<!-- recommender -->
<g id="node9" class="node">
<title>recommender</title>
<path fill="#d1fae5" stroke="#3f4d5a" d="M190,-414C190,-414 28,-414 28,-414 22,-414 16,-408 16,-402 16,-402 16,-379 16,-379 16,-373 22,-367 28,-367 28,-367 190,-367 190,-367 196,-367 202,-373 202,-379 202,-379 202,-402 202,-402 202,-408 196,-414 190,-414"/>
<text text-anchor="middle" x="109" y="-399" font-family="Arial" font-size="10.00">&lt;&lt;component&gt;&gt;</text>
<text text-anchor="middle" x="109" y="-388" font-family="Arial" font-size="10.00">Motor de Recomendação</text>
<text text-anchor="middle" x="109" y="-377" font-family="Arial" font-size="10.00">regras, pré&#45;requisitos, horários e carga</text>
</g>
<!-- api&#45;&gt;recommender -->
<g id="edge5" class="edge">
<title>api&#45;&gt;recommender</title>
<path fill="none" stroke="#34d399" stroke-width="1.25" d="M349.47,-483.47C302.91,-465.66 229.32,-437.52 175.8,-417.05"/>
<polygon fill="#34d399" stroke="#34d399" stroke-width="1.25" points="176.52,-414.33 168.05,-414.08 174.52,-419.56 176.52,-414.33"/>
<text text-anchor="middle" x="275" y="-443.8" font-family="Arial" font-size="9.00">invoca</text>
</g>
<!-- auth -->
<g id="node10" class="node">
<title>auth</title>
<path fill="#d1fae5" stroke="#3f4d5a" d="M365,-414C365,-414 257,-414 257,-414 251,-414 245,-408 245,-402 245,-402 245,-379 245,-379 245,-373 251,-367 257,-367 257,-367 365,-367 365,-367 371,-367 377,-373 377,-379 377,-379 377,-402 377,-402 377,-408 371,-414 365,-414"/>
<text text-anchor="middle" x="311" y="-399" font-family="Arial" font-size="10.00">&lt;&lt;component&gt;&gt;</text>
<text text-anchor="middle" x="311" y="-388" font-family="Arial" font-size="10.00">Autenticação, autorização</text>
<text text-anchor="middle" x="311" y="-377" font-family="Arial" font-size="10.00">e auditoria</text>
</g>
<!-- api&#45;&gt;auth -->
<g id="edge6" class="edge">
<title>api&#45;&gt;auth</title>
<path fill="none" stroke="#34d399" stroke-width="1.25" d="M381.03,-483.47C368.25,-466.68 348.47,-440.71 333.19,-420.64"/>
<polygon fill="#34d399" stroke="#34d399" stroke-width="1.25" points="335.27,-418.75 328.2,-414.08 330.82,-422.15 335.27,-418.75"/>
<text text-anchor="middle" x="366.5" y="-443.8" font-family="Arial" font-size="9.00">valida</text>
</g>
<!-- integration -->
<g id="node11" class="node">
<title>integration</title>
<path fill="#d1fae5" stroke="#3f4d5a" d="M584,-408.5C584,-408.5 432,-408.5 432,-408.5 426,-408.5 420,-402.5 420,-396.5 420,-396.5 420,-384.5 420,-384.5 420,-378.5 426,-372.5 432,-372.5 432,-372.5 584,-372.5 584,-372.5 590,-372.5 596,-378.5 596,-384.5 596,-384.5 596,-396.5 596,-396.5 596,-402.5 590,-408.5 584,-408.5"/>
<text text-anchor="middle" x="508" y="-393.5" font-family="Arial" font-size="10.00">&lt;&lt;component&gt;&gt;</text>
<text text-anchor="middle" x="508" y="-382.5" font-family="Arial" font-size="10.00">Integração com Sistema Acadêmico</text>
</g>
<!-- api&#45;&gt;integration -->
<g id="edge7" class="edge">
<title>api&#45;&gt;integration</title>
<path fill="none" stroke="#34d399" stroke-width="1.25" d="M411.81,-483.47C431.27,-464.86 462.55,-434.96 484.13,-414.33"/>
<polygon fill="#34d399" stroke="#34d399" stroke-width="1.25" points="486.09,-416.32 489.94,-408.77 482.22,-412.28 486.09,-416.32"/>
<text text-anchor="middle" x="486" y="-443.8" font-family="Arial" font-size="9.00">consulta / envia</text>
</g>
<!-- dbms -->
<g id="node12" class="node">
<title>dbms</title>
<path fill="#fffbeb" stroke="#3f4d5a" d="M738.5,-206.5C738.5,-206.5 623.5,-206.5 623.5,-206.5 617.5,-206.5 611.5,-200.5 611.5,-194.5 611.5,-194.5 611.5,-171.5 611.5,-171.5 611.5,-165.5 617.5,-159.5 623.5,-159.5 623.5,-159.5 738.5,-159.5 738.5,-159.5 744.5,-159.5 750.5,-165.5 750.5,-171.5 750.5,-171.5 750.5,-194.5 750.5,-194.5 750.5,-200.5 744.5,-206.5 738.5,-206.5"/>
<text text-anchor="middle" x="681" y="-191.5" font-family="Arial" font-size="10.00">&lt;&lt;executionEnvironment&gt;&gt;</text>
<text text-anchor="middle" x="681" y="-180.5" font-family="Arial" font-size="10.00">SGBD Relacional</text>
<text text-anchor="middle" x="681" y="-169.5" font-family="Arial" font-size="10.00">PostgreSQL (referência)</text>
</g>
<!-- api&#45;&gt;dbms -->
<g id="edge13" class="edge">
<title>api&#45;&gt;dbms</title>
<path fill="none" stroke="#475569" stroke-width="1.25" d="M440.12,-483.46C478.88,-469.15 528,-451 528,-451 528,-451 618,-414 618,-414 618,-414 655.36,-277.59 672.54,-214.88"/>
<polygon fill="#475569" stroke="#475569" stroke-width="1.25" points="675.32,-215.35 674.73,-206.89 669.91,-213.87 675.32,-215.35"/>
<text text-anchor="middle" x="687.5" y="-332.8" font-family="Arial" font-size="9.00">SQL via TCP/IP + TLS</text>
<text text-anchor="middle" x="687.5" y="-322.8" font-family="Arial" font-size="9.00">(rede privada)</text>
</g>
<!-- academic -->
<g id="node15" class="node">
<title>academic</title>
<path fill="#fdf2f8" stroke="#db2777" d="M556.5,-218C556.5,-218 419.5,-218 419.5,-218 413.5,-218 407.5,-212 407.5,-206 407.5,-206 407.5,-160 407.5,-160 407.5,-154 413.5,-148 419.5,-148 419.5,-148 556.5,-148 556.5,-148 562.5,-148 568.5,-154 568.5,-160 568.5,-160 568.5,-206 568.5,-206 568.5,-212 562.5,-218 556.5,-218"/>
<text text-anchor="middle" x="488" y="-203" font-family="Arial" font-size="10.00">&lt;&lt;system&gt;&gt;</text>
<text text-anchor="middle" x="488" y="-192" font-family="Arial" font-size="10.00">Sistema Acadêmico Institucional</text>
<text text-anchor="middle" x="488" y="-181" font-family="Arial" font-size="10.00">(SIGAA ou equivalente)</text>
<text text-anchor="middle" x="488" y="-158" font-family="Arial" font-size="10.00">&lt;&lt;component&gt;&gt; API acadêmica</text>
</g>
<!-- integration&#45;&gt;academic -->
<g id="edge14" class="edge">
<title>integration&#45;&gt;academic</title>
<path fill="none" stroke="#475569" stroke-width="1.25" d="M506.33,-372.33C503.23,-340.46 496.49,-271.28 492.11,-226.23"/>
<polygon fill="#475569" stroke="#475569" stroke-width="1.25" points="494.88,-225.8 491.32,-218.11 489.31,-226.35 494.88,-225.8"/>
<text text-anchor="middle" x="534.5" y="-285.8" font-family="Arial" font-size="9.00">REST / JSON</text>
<text text-anchor="middle" x="534.5" y="-275.8" font-family="Arial" font-size="9.00">HTTPS / TCP 443</text>
</g>
<!-- db_data -->
<g id="node13" class="node">
<title>db_data</title>
<path fill="#fef3c7" stroke="#3f4d5a" d="M658,-63C658,-63 428,-63 428,-63 422,-63 416,-57 416,-51 416,-51 416,-28 416,-28 416,-22 422,-16 428,-16 428,-16 658,-16 658,-16 664,-16 670,-22 670,-28 670,-28 670,-51 670,-51 670,-57 664,-63 658,-63"/>
<text text-anchor="middle" x="543" y="-48" font-family="Arial" font-size="10.00">&lt;&lt;artifact&gt;&gt;</text>
<text text-anchor="middle" x="543" y="-37" font-family="Arial" font-size="10.00">Base recomendador_grade</text>
<text text-anchor="middle" x="543" y="-26" font-family="Arial" font-size="10.00">alunos, matrizes, disciplinas, turmas, regras, auditoria</text>
</g>
<!-- dbms&#45;&gt;db_data -->
<g id="edge8" class="edge">
<title>dbms&#45;&gt;db_data</title>
<path fill="none" stroke="#fbbf24" stroke-width="1.25" d="M658.83,-159.27C634.89,-134.72 596.7,-95.56 570.78,-68.98"/>
<polygon fill="#fbbf24" stroke="#fbbf24" stroke-width="1.25" points="572.71,-66.95 565.12,-63.18 568.7,-70.86 572.71,-66.95"/>
<text text-anchor="middle" x="636.5" y="-113.8" font-family="Arial" font-size="9.00">persiste</text>
</g>
<!-- migrations -->
<g id="node14" class="node">
<title>migrations</title>
<path fill="#fef3c7" stroke="#3f4d5a" d="M834.5,-63C834.5,-63 725.5,-63 725.5,-63 719.5,-63 713.5,-57 713.5,-51 713.5,-51 713.5,-28 713.5,-28 713.5,-22 719.5,-16 725.5,-16 725.5,-16 834.5,-16 834.5,-16 840.5,-16 846.5,-22 846.5,-28 846.5,-28 846.5,-51 846.5,-51 846.5,-57 840.5,-63 834.5,-63"/>
<text text-anchor="middle" x="780" y="-48" font-family="Arial" font-size="10.00">&lt;&lt;artifact&gt;&gt;</text>
<text text-anchor="middle" x="780" y="-37" font-family="Arial" font-size="10.00">Migrações SQL</text>
<text text-anchor="middle" x="780" y="-26" font-family="Arial" font-size="10.00">versionadas no repositório</text>
</g>
<!-- dbms&#45;&gt;migrations -->
<g id="edge9" class="edge">
<title>dbms&#45;&gt;migrations</title>
<path fill="none" stroke="#fbbf24" stroke-width="1.25" d="M696.91,-159.27C713.87,-135.03 740.79,-96.55 759.37,-69.99"/>
<polygon fill="#fbbf24" stroke="#fbbf24" stroke-width="1.25" points="761.84,-71.34 764.13,-63.18 757.25,-68.13 761.84,-71.34"/>
<text text-anchor="middle" x="742.5" y="-113.8" font-family="Arial" font-size="9.00">aplica</text>
</g>
</g>
</svg>
